#!OML:ASF H:\Terrain\Patient Classification 1\Animal2\Wednesday\Animal2.ASF
:FULLY-SPECIFIED
:DEGREES
2815
root -3.69442 15.8126 -10.0858 22.7928 -10.5241 0.75132
lowerback 17.8823 -3.75712 -2.03675
upperback -4.14789 -5.56529 -0.199868
thorax -14.6059 -2.37715 2.59129
lowerneck 1.58436 3.04746 12.7596
upperneck -12.6702 3.04542 -16.064
head -3.45143 1.6869 -7.25403
rclavicle 6.0033e-014 1.74931e-014
rhumerus -48.9078 -32.634 -1.08275
rradius 20.5705
rwrist 27.4391
rhand 12.8482 28.154
rfingers 7.12502
rthumb 37.8225 2.30672
lclavicle 6.0033e-014 1.74931e-014
lhumerus -44.1489 13.2257 8.11857
lradius 24.8713
lwrist 17.8594
lhand -24.1409 39.2447
lfingers 7.12502
lthumb 2.34132 69.2116
rfemur -66.485 -13.6787 11.1108
rtibia 58.6688
rfoot -17.4487 -14.9686
rtoes -1.65486
lfemur -24.162 9.10522 -0.3983
ltibia 41.3436
lfoot -29.7339 9.33393
ltoes -38.4767
2816
root -3.85551 15.8424 -9.96368 22.5313 -10.8544 0.882831
lowerback 17.553 -3.68033 -2.22224
upperback -4.21254 -5.50936 -0.268676
thorax -14.4751 -2.34584 2.57794
lowerneck 1.62816 3.13266 12.7754
upperneck -12.2958 3.19607 -16.1542
head -3.32366 1.76492 -7.27644
rclavicle 3.02153e-014 -2.38542e-015
rhumerus -49.0739 -32.8275 0.990062
rradius 20.3076
rwrist 28.8246
rhand 13.0965 28.418
rfingers 7.12502
rthumb 38.057 2.63428
lclavicle 3.02153e-014 -2.38542e-015
lhumerus -43.7473 12.8524 6.56418
lradius 24.5939
lwrist 17.7094
lhand -24.5185 39.5287
lfingers 7.12502
lthumb 1.97658 69.4992
rfemur -65.9855 -13.7809 11.5767
rtibia 58.9595
rfoot -18.2784 -14.0343
rtoes -1.25196
lfemur -22.3166 8.39691 -0.00930542
ltibia 39.8261
lfoot -28.513 9.60666
ltoes -37.9769
2817
root -4.01412 15.8697 -9.84433 22.241 -11.3331 1.10153
lowerback 17.3116 -3.58942 -2.54118
upperback -4.3743 -5.47282 -0.351458
thorax -14.5012 -2.30598 2.64151
lowerneck 1.9299 3.15284 12.8846
upperneck -11.9997 3.26311 -16.4374
head -3.2681 1.81596 -7.3868
rclavicle 2.42517e-014 5.24792e-014
rhumerus -49.109 -33.1685 3.14645
rradius 20.0541
rwrist 30.4021
rhand 13.3183 28.3827
rfingers 7.12502
rthumb 38.2664 2.6565
lclavicle 2.42517e-014 5.24792e-014
lhumerus -43.573 12.4185 4.88628
lradius 24.4363
lwrist 17.5061
lhand -24.6943 39.7225
lfingers 7.12502
lthumb 1.80678 69.6946
rfemur -65.5298 -13.7929 11.8614
rtibia 59.214
rfoot -18.8306 -13.0182
rtoes -1.2818
lfemur -20.6215 7.72009 0.148276
ltibia 38.478
lfoot -26.1952 11.7733
ltoes -41.0998
2818
root -4.17932 15.8993 -9.73056 21.9079 -11.8267 1.07549
lowerback 17.2548 -3.47039 -2.81024
upperback -4.57173 -5.37709 -0.314843
thorax -14.6778 -2.22883 2.81076
lowerneck 2.27379 3.17659 13.0365
upperneck -11.5794 3.34706 -16.816
head -3.17736 1.87859 -7.53368
rclavicle 6.0033e-014 2.78299e-014
rhumerus -49.0592 -33.4007 5.39841
rradius 19.7062
rwrist 31.9818
rhand 13.4091 29.8762
rfingers 7.12502
rthumb 38.3521 4.17369
lclavicle 6.0033e-014 2.78299e-014
lhumerus -43.4693 12.1825 3.06072
lradius 24.2648
lwrist 17.1057
lhand -24.487 39.5664
lfingers 7.12502
lthumb 2.00704 69.5367
rfemur -64.9696 -13.6136 12.4114
rtibia 59.3951
rfoot -19.0219 -12.3623
rtoes -2.53097
lfemur -19.0016 7.02746 0.64455
ltibia 37.3791
lfoot -23.8494 12.3483
ltoes -41.519
2819
root -4.34943 15.9444 -9.61404 21.5088 -12.2009 0.962148
lowerback 17.277 -3.36507 -2.95463
upperback -4.75898 -5.276 -0.29569
thorax -14.9061 -2.1585 2.89508
lowerneck 2.59385 3.19465 13.2991
upperneck -11.0823 3.4412 -17.1748
head -3.05725 1.93948 -7.69106
rclavicle -4.7112e-014 -4.6118e-014
rhumerus -49.0658 -33.5586 7.53471
rradius 19.5274
rwrist 33.4129
rhand 13.7268 31.0794
rfingers 7.12502
rthumb 38.6519 5.46052
lclavicle -4.7112e-014 -4.6118e-014
lhumerus -43.0657 11.9645 1.24187
lradius 24.034
lwrist 16.6207
lhand -24.4585 39.0377
lfingers 7.12502
lthumb 2.03457 69.0077
rfemur -64.1751 -13.4507 13.0804
rtibia 59.4673
rfoot -19.0906 -12.0002
rtoes -4.23021
lfemur -17.45 6.27552 1.28852
ltibia 36.6233
lfoot -22.5806 10.5822
ltoes -36.2792
2820
root -4.51576 15.9934 -9.48885 21.1366 -12.5028 0.971615
lowerback 17.0735 -3.33249 -3.03592
upperback -4.84906 -5.2567 -0.358357
thorax -14.8897 -2.14755 2.85312
lowerneck 2.81169 3.25125 13.3761
upperneck -10.7566 3.57011 -17.3089
head -2.97431 2.01253 -7.74489
rclavicle -4.03533e-014 -6.20208e-014
rhumerus -48.6724 -33.7771 8.87065
rradius 19.7614
rwrist 34.0474
rhand 14.763 29.9755
rfingers 7.12502
rthumb 39.6286 4.63845
lclavicle -4.03533e-014 -6.20208e-014
lhumerus -42.6524 11.8181 -0.584347
lradius 23.9757
lwrist 16.3386
lhand -24.7123 38.6747
lfingers 7.12502
lthumb 1.7894 68.647
rfemur -63.2919 -13.3679 13.5701
rtibia 59.4717
rfoot -19.3142 -11.6724
rtoes -5.94797
lfemur -16.196 5.7535 1.651
ltibia 36.2111
lfoot -20.3371 10.6318
ltoes -34.3445
2821
root -4.67843 16.0447 -9.35913 20.8272 -12.6717 0.900903
lowerback 16.7572 -3.37855 -2.92624
upperback -4.83999 -5.2832 -0.372665
thorax -14.6942 -2.18 2.75843
lowerneck 2.57035 3.42196 13.2815
upperneck -10.3931 3.81242 -17.2876
head -2.79132 2.12251 -7.70417
rclavicle -9.44227e-014 -7.15625e-015
rhumerus -47.574 -32.4241 8.92586
rradius 20.2057
rwrist 32.5517
rhand 15.7457 29.1561
rfingers 7.12502
rthumb 40.5531 4.0993
lclavicle -9.44227e-014 -7.15625e-015
lhumerus -42.5241 11.8119 -2.40252
lradius 24.162
lwrist 16.4224
lhand -24.8412 38.3975
lfingers 7.12502
lthumb 1.66497 68.3708
rfemur -62.3051 -13.3397 14.1341
rtibia 59.4371
rfoot -19.8531 -11.4626
rtoes -6.87081
lfemur -15.2858 5.32862 2.00146
ltibia 36.0975
lfoot -16.8924 11.7893
ltoes -35.0511
2822
root -4.84079 16.0992 -9.22896 20.4113 -12.7903 0.905846
lowerback 16.5474 -3.42417 -2.89773
upperback -4.81773 -5.33285 -0.39838
thorax -14.5415 -2.214 2.71017
lowerneck 2.12207 3.56913 13.4485
upperneck -9.77696 4.0241 -17.4896
head -2.49198 2.20532 -7.76937
rclavicle 7.35503e-015 1.82882e-014
rhumerus -47.1227 -32.7528 10.4762
rradius 20.0959
rwrist 33.5269
rhand 15.7501 29.8865
rfingers 7.12502
rthumb 40.5572 4.83104
lclavicle 7.35503e-015 1.82882e-014
lhumerus -42.3737 11.8802 -4.19949
lradius 24.2459
lwrist 16.3744
lhand -24.7225 37.9117
lfingers 7.12502
lthumb 1.7796 67.884
rfemur -61.1728 -13.4122 14.6209
rtibia 59.4006
rfoot -20.6759 -11.3176
rtoes -6.60721
lfemur -14.5135 4.71877 2.25027
ltibia 36.2485
lfoot -14.1025 12.0414
ltoes -31.235
2823
root -5.00541 16.1487 -9.10329 19.9982 -13.045 1.14399
lowerback 16.3338 -3.41015 -3.26375
upperback -4.91796 -5.39771 -0.437807
thorax -14.497 -2.21556 2.87594
lowerneck 1.96122 3.65025 13.7932
upperneck -9.1136 4.17125 -17.9731
head -2.22545 2.27076 -7.96529
rclavicle -2.0276e-014 0
rhumerus -46.4719 -32.8344 11.866
rradius 19.8975
rwrist 34.2404
rhand 15.4359 30.8632
rfingers 7.12502
rthumb 40.2618 5.71662
lclavicle -2.0276e-014 0
lhumerus -42.0408 11.8058 -5.88695
lradius 24.1755
lwrist 16.3637
lhand -24.7713 37.7834
lfingers 7.12502
lthumb 1.73246 67.7561
rfemur -60.1759 -13.3653 14.8086
rtibia 59.3672
rfoot -21.4461 -11.3116
rtoes -6.55977
lfemur -13.9688 4.21687 2.16501
ltibia 36.6005
lfoot -11.8457 12.3139
ltoes -27.8659
2824
root -5.1654 16.1969 -8.98089 19.8002 -13.2583 1.15314
lowerback 15.9685 -3.42247 -3.34079
upperback -5.0889 -5.4232 -0.425339
thorax -14.4661 -2.22203 2.91914
lowerneck 2.15348 3.73153 13.9714
upperneck -8.76743 4.32623 -18.3415
head -2.11674 2.35922 -8.11293
rclavicle 8.60738e-014 3.73715e-014
rhumerus -45.2185 -31.8546 12.1107
rradius 20.0525
rwrist 33.312
rhand 15.4673 30.0397
rfingers 7.12502
rthumb 40.2914 4.90222
lclavicle 8.60738e-014 3.73715e-014
lhumerus -41.6766 11.4209 -7.39177
lradius 24.4155
lwrist 17.1757
lhand -25.0058 38.3808
lfingers 7.12502
lthumb 1.50593 68.3553
rfemur -59.3156 -13.2256 15.2495
rtibia 59.2568
rfoot -22.0582 -11.2823
rtoes -6.1104
lfemur -13.71 3.97365 2.2555
ltibia 37.0979
lfoot -9.70963 12.7492
ltoes -27.237
2825
root -5.31859 16.2473 -8.84865 19.5616 -13.2984 1.20538
lowerback 15.5579 -3.52315 -3.18809
upperback -5.2729 -5.52805 -0.492224
thorax -14.4475 -2.29084 2.764
lowerneck 2.7263 3.75139 13.9352
upperneck -8.80767 4.40686 -18.404
head -2.21235 2.42795 -8.14389
rclavicle -5.56597e-015 1.59028e-015
rhumerus -43.9554 -31.1171 12.3838
rradius 20.3528
rwrist 32.6281
rhand 15.759 27.7622
rfingers 7.12502
rthumb 40.5656 2.70933
lclavicle -5.56597e-015 1.59028e-015
lhumerus -41.3513 11.2481 -9.10053
lradius 24.8383
lwrist 17.7718
lhand -25.3986 38.927
lfingers 7.12502
lthumb 1.12656 68.9038
rfemur -58.3055 -13.3719 15.6635
rtibia 59.0917
rfoot -22.6842 -11.0177
rtoes -4.88686
lfemur -13.5361 3.6423 2.26246
ltibia 37.6797
lfoot -8.01006 13.2284
ltoes -25.8684
2826
root -5.46815 16.3003 -8.71615 19.3128 -13.4733 1.16522
lowerback 15.4066 -3.54756 -3.02254
upperback -5.62581 -5.54101 -0.508511
thorax -14.792 -2.29971 2.66285
lowerneck 3.23023 3.74106 13.8742
upperneck -8.51776 4.47041 -18.4997
head -2.20445 2.48332 -8.17069
rclavicle 4.51241e-014 1.59028e-015
rhumerus -43.132 -31.2567 13.8457
rradius 20.3193
rwrist 33.422
rhand 15.8711 27.5487
rfingers 7.12502
rthumb 40.671 2.52868
lclavicle 4.51241e-014 1.59028e-015
lhumerus -40.9844 11.515 -11.1346
lradius 24.9693
lwrist 17.1727
lhand -25.6909 38.6605
lfingers 7.12502
lthumb 0.8443 68.6385
rfemur -57.2293 -13.2584 16.0533
rtibia 58.8302
rfoot -23.1834 -10.927
rtoes -3.9564
lfemur -13.3233 3.37413 2.25211
ltibia 38.3473
lfoot -6.98511 13.6944
ltoes -22.4842
2827
root -5.61829 16.3551 -8.58453 18.9176 -13.729 1.14284
lowerback 15.3296 -3.51454 -2.99685
upperback -5.81889 -5.49675 -0.498601
thorax -14.9797 -2.27385 2.65124
lowerneck 3.01634 3.81878 13.8854
upperneck -7.83365 4.61559 -18.7445
head -1.9393 2.54506 -8.22747
rclavicle -6.50026e-014 -3.73715e-014
rhumerus -42.453 -31.4971 15.3397
rradius 20.3724
rwrist 34.1325
rhand 15.7921 28.6142
rfingers 7.12502
rthumb 40.5967 3.57094
lclavicle -6.50026e-014 -3.73715e-014
lhumerus -40.5074 11.8708 -12.9825
lradius 24.9248
lwrist 16.6197
lhand -25.8738 39.0099
lfingers 7.12502
lthumb 0.667642 68.9886
rfemur -55.9469 -12.9651 16.3238
rtibia 58.5076
rfoot -23.5756 -10.9621
rtoes -3.17565
lfemur -12.9837 3.2539 2.13581
ltibia 39.0264
lfoot -6.45292 13.9146
ltoes -20.1169
